<svg width="272" height="30" viewBox="0 0 272 30" fill="none" xmlns="http://www.w3.org/2000/svg">
<rect x="11" y="12" width="246" height="7" fill="#7E7E7E"/>
<circle cx="71" cy="15" r="15" fill="#7E7E7E"/>
<circle cx="134" cy="15" r="15" fill="#7E7E7E"/>
<circle cx="257" cy="15" r="15" fill="#7E7E7E"/>
<circle cx="197" cy="15" r="15" fill="#7E7E7E"/>
<circle cx="15" cy="15" r="15" fill="#1689FE"/>
<path d="M20.5859 20.0078C19.7227 18.5078 18.1016 17.5 16.25 17.5H13.75C11.8984 17.5 10.2773 18.5078 9.41406 20.0078C10.7891 21.5391 12.7813 22.5 15 22.5C17.2187 22.5 19.2109 21.5352 20.5859 20.0078ZM5 15C5 12.3478 6.05357 9.8043 7.92893 7.92893C9.8043 6.05357 12.3478 5 15 5C17.6522 5 20.1957 6.05357 22.0711 7.92893C23.9464 9.8043 25 12.3478 25 15C25 17.6522 23.9464 20.1957 22.0711 22.0711C20.1957 23.9464 17.6522 25 15 25C12.3478 25 9.8043 23.9464 7.92893 22.0711C6.05357 20.1957 5 17.6522 5 15ZM15 15.625C15.7459 15.625 16.4613 15.3287 16.9887 14.8012C17.5162 14.2738 17.8125 13.5584 17.8125 12.8125C17.8125 12.0666 17.5162 11.3512 16.9887 10.8238C16.4613 10.2963 15.7459 10 15 10C14.2541 10 13.5387 10.2963 13.0113 10.8238C12.4838 11.3512 12.1875 12.0666 12.1875 12.8125C12.1875 13.5584 12.4838 14.2738 13.0113 14.8012C13.5387 15.3287 14.2541 15.625 15 15.625Z" fill="white"/>
<path d="M64.6792 7C63.7048 7 62.8677 7.67188 62.676 8.60625L61.0403 16.6062C60.7879 17.8437 61.7527 19 63.0434 19H69.9761V21H67.9315C67.366 21 66.9091 21.4469 66.9091 22C66.9091 22.5531 67.366 23 67.9315 23H74.0655C74.6309 23 75.0878 22.5531 75.0878 22C75.0878 21.4469 74.6309 21 74.0655 21H72.0208V19H78.9535C80.2442 19 81.2122 17.8469 80.9598 16.6062L79.3241 8.60625C79.1292 7.67188 78.2922 7 77.3177 7H64.6792ZM69.1103 9H72.8866L73.2188 12.25H68.7781L69.1103 9ZM67.2382 12.25H64.0178L64.6792 9H67.5673L67.2382 12.25ZM63.708 13.75H67.0816L66.7526 17H63.0434L63.708 13.75ZM68.6247 13.75H73.3722L73.7044 17H68.2925L68.6247 13.75ZM74.9121 13.75H78.2858L78.9535 17H75.2475L74.9121 13.75ZM77.9791 12.25H74.7587L74.4265 9H77.3145L78.3177 8.80313L77.3177 9L77.9823 12.25H77.9791Z" fill="white"/>
<path d="M127.679 7C126.705 7 125.868 7.67188 125.676 8.60625L124.04 16.6062C123.788 17.8437 124.753 19 126.043 19H132.976V21H130.931C130.366 21 129.909 21.4469 129.909 22C129.909 22.5531 130.366 23 130.931 23H137.065C137.631 23 138.088 22.5531 138.088 22C138.088 21.4469 137.631 21 137.065 21H135.021V19H141.953C143.244 19 144.212 17.8469 143.96 16.6062L142.324 8.60625C142.129 7.67188 141.292 7 140.318 7H127.679ZM132.11 9H135.887L136.219 12.25H131.778L132.11 9ZM130.238 12.25H127.018L127.679 9H130.567L130.238 12.25ZM126.708 13.75H130.082L129.753 17H126.043L126.708 13.75ZM131.625 13.75H136.372L136.704 17H131.292L131.625 13.75ZM137.912 13.75H141.286L141.953 17H138.248L137.912 13.75ZM140.979 12.25H137.759L137.426 9H140.315L141.318 8.80313L140.318 9L140.982 12.25H140.979Z" fill="white"/>
<path d="M78.6536 20.3636V24H77.8848V21.0934H77.8635L77.0308 21.6154V20.9336L77.931 20.3636H78.6536Z" fill="white"/>
<path d="M140.72 24V23.446L142.014 22.2475C142.125 22.141 142.217 22.0451 142.291 21.9599C142.367 21.8746 142.425 21.7912 142.464 21.7095C142.503 21.6267 142.522 21.5373 142.522 21.4414C142.522 21.3349 142.498 21.2431 142.449 21.1662C142.401 21.0881 142.335 21.0283 142.251 20.9869C142.167 20.9442 142.071 20.9229 141.965 20.9229C141.853 20.9229 141.756 20.9454 141.674 20.9904C141.591 21.0354 141.527 21.0999 141.482 21.1839C141.437 21.268 141.414 21.368 141.414 21.484H140.685C140.685 21.2461 140.738 21.0395 140.846 20.8643C140.954 20.6892 141.105 20.5536 141.299 20.4577C141.493 20.3619 141.717 20.3139 141.97 20.3139C142.23 20.3139 142.457 20.3601 142.65 20.4524C142.844 20.5436 142.995 20.6702 143.103 20.8324C143.211 20.9946 143.264 21.1804 143.264 21.3899C143.264 21.5272 143.237 21.6628 143.183 21.7965C143.129 21.9303 143.034 22.0788 142.897 22.2422C142.76 22.4044 142.566 22.5991 142.316 22.8263L141.785 23.3466V23.3714H143.312V24H140.72Z" fill="white"/>
<path d="M193.286 7C193.878 7 194.357 7.41895 194.357 7.9375V8.875H198.643V7.9375C198.643 7.41895 199.122 7 199.714 7C200.307 7 200.786 7.41895 200.786 7.9375V8.875H202.393C203.28 8.875 204 9.50488 204 10.2812V11.6875H189V10.2812C189 9.50488 189.72 8.875 190.607 8.875H192.214V7.9375C192.214 7.41895 192.693 7 193.286 7ZM189 12.625H204V20.5938C204 21.3701 203.28 22 202.393 22H190.607C189.72 22 189 21.3701 189 20.5938V12.625ZM191.143 14.9688V15.9062C191.143 16.1641 191.384 16.375 191.679 16.375H192.75C193.045 16.375 193.286 16.1641 193.286 15.9062V14.9688C193.286 14.7109 193.045 14.5 192.75 14.5H191.679C191.384 14.5 191.143 14.7109 191.143 14.9688ZM195.429 14.9688V15.9062C195.429 16.1641 195.67 16.375 195.964 16.375H197.036C197.33 16.375 197.571 16.1641 197.571 15.9062V14.9688C197.571 14.7109 197.33 14.5 197.036 14.5H195.964C195.67 14.5 195.429 14.7109 195.429 14.9688ZM200.25 14.5C199.955 14.5 199.714 14.7109 199.714 14.9688V15.9062C199.714 16.1641 199.955 16.375 200.25 16.375H201.321C201.616 16.375 201.857 16.1641 201.857 15.9062V14.9688C201.857 14.7109 201.616 14.5 201.321 14.5H200.25ZM191.143 18.7188V19.6562C191.143 19.9141 191.384 20.125 191.679 20.125H192.75C193.045 20.125 193.286 19.9141 193.286 19.6562V18.7188C193.286 18.4609 193.045 18.25 192.75 18.25H191.679C191.384 18.25 191.143 18.4609 191.143 18.7188ZM195.964 18.25C195.67 18.25 195.429 18.4609 195.429 18.7188V19.6562C195.429 19.9141 195.67 20.125 195.964 20.125H197.036C197.33 20.125 197.571 19.9141 197.571 19.6562V18.7188C197.571 18.4609 197.33 18.25 197.036 18.25H195.964ZM199.714 18.7188V19.6562C199.714 19.9141 199.955 20.125 200.25 20.125H201.321C201.616 20.125 201.857 19.9141 201.857 19.6562V18.7188C201.857 18.4609 201.616 18.25 201.321 18.25H200.25C199.955 18.25 199.714 18.4609 199.714 18.7188Z" fill="white"/>
<path d="M266.582 8.41009C267.139 8.95688 267.139 9.84487 266.582 10.3917L255.154 21.5899C254.596 22.1367 253.69 22.1367 253.132 21.5899L247.418 15.9908C246.861 15.444 246.861 14.556 247.418 14.0092C247.976 13.4624 248.883 13.4624 249.441 14.0092L254.145 18.6154L264.564 8.41009C265.122 7.8633 266.028 7.8633 266.586 8.41009H266.582Z" fill="white"/>
</svg>
